<?xml version="1.0" standalone="no"?>
<!DOCTYPE svg PUBLIC "-//W3C//DTD SVG 20010904//EN"
 "http://www.w3.org/TR/2001/REC-SVG-20010904/DTD/svg10.dtd">
<svg version="1.0" xmlns="http://www.w3.org/2000/svg"
 width="213.000000pt" height="171.000000pt" viewBox="0 0 213.000000 171.000000"
 preserveAspectRatio="xMidYMid meet">
<metadata>
Created by potrace 1.10, written by Peter Selinger 2001-2011
</metadata>
<g transform="translate(0.000000,171.000000) scale(0.050000,-0.050000)"
fill="oklch(50.8% 0.118 165.612)" stroke="none">
<path d="M1106 3132 c-245 -78 -324 -184 -486 -651 -69 -199 -133 -361 -142
-361 -30 0 -159 -125 -194 -188 -30 -55 -34 -141 -34 -759 l0 -696 67 -61 c66
-58 72 -60 247 -53 236 9 276 46 276 258 l0 139 571 0 571 0 -16 75 c-143 672
441 1422 1109 1425 81 0 82 -11 -23 287 -132 370 -196 462 -390 558 -114 56
-1394 78 -1556 27z m1431 -423 c33 -27 73 -88 88 -135 l29 -84 -177 -93 c-97
-52 -216 -126 -264 -165 l-87 -72 -593 0 c-326 0 -593 7 -593 16 0 24 131 405
161 470 51 109 74 112 752 113 l624 1 60 -51z m-1542 -1119 c159 -185 -95
-436 -277 -274 -56 50 -67 74 -67 144 0 181 227 267 344 130z"/>
<path d="M2930 1932 c-668 -166 -906 -1019 -420 -1505 353 -353 918 -353 1271
0 634 634 19 1721 -851 1505z m441 -413 c40 -44 42 -36 -66 -334 -7 -18 23
-25 110 -25 137 0 199 -44 177 -124 -15 -55 -540 -476 -593 -476 -104 0 -120
89 -49 264 28 68 50 126 50 129 0 4 -50 7 -111 7 -133 0 -189 26 -189 86 1 63
2 64 297 300 281 225 314 240 374 173z"/>
</g>
</svg>
