<?xml version="1.0" standalone="no"?>
<!DOCTYPE svg PUBLIC "-//W3C//DTD SVG 20010904//EN"
 "http://www.w3.org/TR/2001/REC-SVG-20010904/DTD/svg10.dtd">
<svg version="1.0" xmlns="http://www.w3.org/2000/svg"
 width="278.000000pt" height="283.000000pt" viewBox="0 0 278.000000 283.000000"
 preserveAspectRatio="xMidYMid meet">
<metadata>
Created by potrace 1.10, written by Peter Selinger 2001-2011
</metadata>
<g transform="translate(0.000000,283.000000) scale(0.100000,-0.100000)"
fill="#000000" stroke="none">
<path d="M1590 2613 c0 -5 -139 -723 -156 -805 l-6 -28 182 0 c104 0 180 -4
178 -9 -9 -25 -723 -1137 -726 -1131 -3 7 142 762 154 802 5 16 -10 18 -179
20 l-185 3 199 310 c109 171 199 313 199 318 0 4 -263 7 -585 7 -322 0 -585
-2 -585 -4 0 -3 17 -31 39 -63 105 -159 466 -709 811 -1235 212 -323 389 -586
394 -584 11 3 1236 1863 1236 1877 0 5 -145 9 -350 9 l-350 0 -130 260 c-117
234 -140 275 -140 253z"/>
</g>
</svg>
