<?xml version="1.0" standalone="no"?>
<!DOCTYPE svg PUBLIC "-//W3C//DTD SVG 20010904//EN"
 "http://www.w3.org/TR/2001/REC-SVG-20010904/DTD/svg10.dtd">
<svg version="1.0" xmlns="http://www.w3.org/2000/svg"
 width="40.000000pt" height="37.000000pt" viewBox="0 0 40.000000 37.000000"
 preserveAspectRatio="xMidYMid meet">
<metadata>
Created by potrace 1.10, written by Peter Selinger 2001-2011
</metadata>
<g transform="translate(0.000000,37.000000) scale(0.100000,-0.100000)"
fill="#007a55" stroke="none">
<path d="M141 303 c-124 -65 -93 -242 45 -259 73 -9 141 46 150 122 13 104
-103 186 -195 137z m119 -20 c-1 -10 -7 -29 -15 -43 -20 -35 -19 -38 12 -42
15 -2 29 -10 30 -18 2 -16 -106 -113 -132 -118 -19 -4 -19 25 0 58 20 35 19
38 -12 42 -45 5 -36 30 30 86 65 55 87 64 87 35z"/>
</g>
</svg>
